
<svg width="100" height="100" viewBox="0 0 100 100" xmlns="http://www.w3.org/2000/svg">
  <defs>
    <pattern id="lotus-pattern" patternUnits="userSpaceOnUse" width="100" height="100">
      <circle cx="50" cy="50" r="30" fill="none" stroke="#9b87f520" stroke-width="1" />
      <circle cx="50" cy="50" r="20" fill="none" stroke="#9b87f515" stroke-width="0.5" />
      <path d="M50,20 Q60,35 50,50 Q40,35 50,20" fill="none" stroke="#9b87f510" stroke-width="0.5" />
      <path d="M50,20 Q60,35 50,50 Q40,35 50,20" fill="none" stroke="#9b87f510" stroke-width="0.5" transform="rotate(45 50 50)" />
      <path d="M50,20 Q60,35 50,50 Q40,35 50,20" fill="none" stroke="#9b87f510" stroke-width="0.5" transform="rotate(90 50 50)" />
      <path d="M50,20 Q60,35 50,50 Q40,35 50,20" fill="none" stroke="#9b87f510" stroke-width="0.5" transform="rotate(135 50 50)" />
      <path d="M50,20 Q60,35 50,50 Q40,35 50,20" fill="none" stroke="#9b87f510" stroke-width="0.5" transform="rotate(180 50 50)" />
      <path d="M50,20 Q60,35 50,50 Q40,35 50,20" fill="none" stroke="#9b87f510" stroke-width="0.5" transform="rotate(225 50 50)" />
      <path d="M50,20 Q60,35 50,50 Q40,35 50,20" fill="none" stroke="#9b87f510" stroke-width="0.5" transform="rotate(270 50 50)" />
      <path d="M50,20 Q60,35 50,50 Q40,35 50,20" fill="none" stroke="#9b87f510" stroke-width="0.5" transform="rotate(315 50 50)" />
      <circle cx="50" cy="50" r="5" fill="#9b87f510" />
    </pattern>
  </defs>
  <rect width="100%" height="100%" fill="url(#lotus-pattern)" />
</svg>
